<svg version="1.2" xmlns="http://www.w3.org/2000/svg" viewBox="0 0 1000 1000" width="1000" height="1000">
	<style>
		.s0 { fill: #000000 } 
	</style>
	<path id="Shape 1" fill-rule="evenodd" class="s0" d="m100 0h800c55.23 0 100 44.77 100 100v800c0 55.23-44.77 100-100 100h-800c-55.23 0-100-44.77-100-100v-800c0-55.23 44.77-100 100-100zm559.82 501.42c0-88.17-70.81-159.44-158.41-159.44-87.6 0-158.41 71.27-158.41 159.44 0 88.17 70.81 159.44 158.41 159.44 87.6 0 158.41-71.27 158.41-159.44zm207.73-326.89c0-29.29-23.53-52.97-52.63-52.97-29.11 0-52.64 23.68-52.64 52.97 0 29.3 23.53 52.98 52.64 52.98 29.1 0 52.63-23.68 52.63-52.98zm-107.49 326.28c0-144.3-115.88-260.94-259.25-260.94-143.38 0-259.26 116.64-259.26 260.94 0 144.3 115.88 260.94 259.26 260.94 143.37 0 259.25-116.64 259.25-260.94zm-258.85 205.02c-112.43 0-203.3-91.46-203.3-204.61 0-113.16 90.87-204.62 203.3-204.62 112.42 0 203.3 91.46 203.3 204.62 0 113.15-90.88 204.61-203.3 204.61zm-0.32 96.23c-166.57 0-301.21-134.35-301.21-300.55 0-166.2 134.64-300.54 301.21-300.54 166.57 0 301.21 134.34 301.21 300.54 0 166.2-134.64 300.55-301.21 300.55zm368.59-301.26c0-203.45-164.82-367.9-368.72-367.9-203.9 0-368.71 164.45-368.71 367.9 0 203.45 164.81 367.9 368.71 367.9 203.9 0 368.72-164.45 368.72-367.9z"/>
</svg>